<?xml version="1.0" encoding="UTF-8"?>
<svg width="42px" height="12px" viewBox="0 0 42 12" version="1.1" xmlns="http://www.w3.org/2000/svg" xmlns:xlink="http://www.w3.org/1999/xlink">
    <!-- Generator: Sketch 45 (43475) - http://www.bohemiancoding.com/sketch -->
    <title>Fill 1</title>
    <desc>Created with Sketch.</desc>
    <defs></defs>
    <g id="Page-1" stroke="none" stroke-width="1" fill="none" fill-rule="evenodd">
        <g id="Landing_pageSemBusca" transform="translate(-154.000000, -477.000000)" fill="#292831">
            <g id="Busca" transform="translate(130.000000, 306.000000)">
                <g id="Group-6" transform="translate(24.000000, 99.000000)">
                    <g id="Group-5">
                        <g id="Group-8" transform="translate(0.000000, 50.000000)">
                            <path d="M33.8774673,33.0238793 C32.6277691,33.0238793 31.6118446,31.9974793 31.6118446,30.7366793 C31.6118446,29.4750793 32.6277691,28.4486793 33.8774673,28.4486793 C35.1271654,28.4486793 36.1430899,29.4750793 36.1430899,30.7366793 C36.1430899,31.9974793 35.1271654,33.0238793 33.8774673,33.0238793 L33.8774673,33.0238793 Z M9.22505217,33.0238793 C7.97535406,33.0238793 6.95863707,31.9974793 6.95863707,30.7366793 C6.95863707,29.4750793 7.97535406,28.4486793 9.22505217,28.4486793 C10.4739578,28.4486793 11.4906748,29.4750793 11.4906748,30.7366793 C11.4906748,31.9974793 10.4739578,33.0238793 9.22505217,33.0238793 L9.22505217,33.0238793 Z M16.6638069,22.9862793 L16.140788,25.0078793 C15.6272786,24.9014793 14.5653918,24.6470793 13.7808635,24.4558793 C14.3038824,24.0558793 15.0392786,23.5110793 15.7405993,23.0014793 C16.040939,22.9958793 16.3492031,22.9902793 16.6638069,22.9862793 L16.6638069,22.9862793 Z M17.6662597,22.9750793 C19.8312408,22.9582793 21.9938446,22.9878793 22.734788,23.1054793 C23.5636937,23.2366793 25.4386371,24.1894793 26.901505,24.9942793 C23.2506748,25.0374793 18.9199201,25.0758793 17.1265993,25.0614793 L17.6662597,22.9750793 Z M41.1775427,28.6198793 L40.7210899,28.3958793 L41.198939,27.6046793 C41.3106748,27.4198793 41.2876937,27.1830793 41.1442597,27.0222793 C41.0396559,26.9070793 40.7234673,26.5558793 37.4062597,26.1046793 C37.1360333,26.0702793 36.8982975,26.2558793 36.8626371,26.5230793 C36.8277691,26.7902793 37.0132031,27.0358793 37.2770899,27.0718793 C38.2914295,27.2094793 39.4634673,27.4166793 40.0799956,27.5814793 L39.6179956,28.3470793 C39.5466748,28.4646793 39.5284484,28.6070793 39.5672786,28.7390793 C39.6053163,28.8710793 39.6972408,28.9806793 39.820071,29.0406793 L40.4191654,29.3326793 C40.1782597,30.3942793 39.7122975,31.4582793 39.3041842,31.5382793 C38.6313918,31.6702793 37.5972408,31.7166793 36.9545616,31.7334793 C37.0544107,31.4190793 37.1098824,31.0838793 37.1098824,30.7366793 C37.1098824,28.9366793 35.6596937,27.4726793 33.8774673,27.4726793 C32.0952408,27.4726793 30.6450522,28.9366793 30.6450522,30.7366793 C30.6450522,31.0542793 30.6918069,31.3606793 30.7765993,31.6510793 L12.3259201,31.6510793 C12.4099201,31.3606793 12.4574673,31.0542793 12.4574673,30.7366793 C12.4574673,28.9366793 11.0072786,27.4726793 9.22505217,27.4726793 C7.4420333,27.4726793 5.99184462,28.9366793 5.99184462,30.7366793 C5.99184462,31.0910793 6.05048613,31.4318793 6.15429745,31.7518793 C4.45686349,31.6054793 2.68414651,31.3894793 2.39173141,31.2454793 C2.06999556,31.0830793 1.44078802,30.3238793 1.02792009,28.5038793 C1.2830899,28.3150793 1.60799556,27.9926793 1.76727858,27.4990793 C1.90516538,27.0686793 1.88852387,26.6038793 1.71893896,26.1102793 C3.98614651,25.8422793 7.15199556,25.4590793 7.40399556,25.3742793 C7.51652387,25.3358793 7.875505,25.1694793 8.87241066,24.7046793 C10.0301842,24.1646793 11.9677314,23.2606793 12.3338446,23.1550793 C12.4891654,23.1174793 13.1334295,23.0790793 14.0336559,23.0478793 C13.302222,23.5910793 12.5279956,24.1822793 12.3599956,24.3710793 C12.2458824,24.4982793 12.2070522,24.6766793 12.2569767,24.8406793 C12.3069012,25.0046793 12.4384484,25.1302793 12.604071,25.1710793 C12.7197691,25.1998793 15.4513541,25.8782793 16.1392031,26.0014793 C16.2881842,26.0278793 17.1432408,26.0382793 18.3493541,26.0382793 C21.5445239,26.0382793 27.1947125,25.9670793 28.682939,25.9478793 L31.8630522,26.2206793 C31.9644861,26.2302793 32.0635427,26.2062793 32.1499201,26.1542793 C32.1618069,26.1470793 33.3061088,25.4718793 34.4686371,25.5502793 C35.7690522,25.6398793 37.6550899,25.8806793 37.6741088,25.8830793 C37.9419578,25.9190793 38.1804861,25.7278793 38.2145616,25.4606793 C38.2478446,25.1934793 38.0600333,24.9486793 37.7953541,24.9150793 C37.7169012,24.9046793 35.8633541,24.6678793 34.5352031,24.5766793 C33.3211654,24.4934793 32.1911276,25.0278793 31.7988635,25.2358793 L28.8517314,24.9830793 C28.0925616,24.5342793 24.3910144,22.3798793 22.8853541,22.1414793 C21.2956937,21.8894793 12.7768258,22.0118793 12.0723352,22.2150793 C11.6634295,22.3334793 10.1973918,23.0110793 8.46667481,23.8190793 C7.84222198,24.1102793 7.19558047,24.4118793 7.119505,24.4414793 C6.80648613,24.5174793 3.16358047,24.9582793 0.941542734,25.2190793 C0.778297451,25.2382793 0.636448395,25.3390793 0.564335187,25.4870793 C0.491429527,25.6350793 0.49776915,25.8094793 0.580184244,25.9518793 C0.863882357,26.4366793 0.955014433,26.8526793 0.850410659,27.1886793 C0.717278584,27.6174793 0.290938961,27.8182793 0.290938961,27.8182793 C0.0817314137,27.9094793 -0.0355516051,28.1358793 0.00961820619,28.3614793 C0.39712764,30.3190793 1.10795783,31.6886793 1.95905217,32.1182793 C2.59380689,32.4382793 5.72161821,32.7006793 6.70584462,32.7766793 C7.29859934,33.5214793 8.20675028,33.9998793 9.22505217,33.9998793 C10.3091276,33.9998793 11.2679956,33.4566793 11.8544107,32.6270793 L31.2481088,32.6270793 C31.8345239,33.4566793 32.7933918,33.9998793 33.8774673,33.9998793 C34.9211276,33.9998793 35.8482975,33.4958793 36.4394673,32.7182793 C36.7841842,32.7166793 38.4649767,32.6974793 39.4880333,32.4966793 C40.8336182,32.2326793 41.3526748,29.6574793 41.4430144,29.1438793 C41.4810522,28.9294793 41.3724861,28.7150793 41.1775427,28.6198793 L41.1775427,28.6198793 Z" id="Fill-1"></path>
                        </g>
                    </g>
                </g>
            </g>
        </g>
    </g>
</svg>