<?xml version="1.0" encoding="UTF-8"?>
<svg width="27px" height="16px" viewBox="0 0 27 16" version="1.1" xmlns="http://www.w3.org/2000/svg" xmlns:xlink="http://www.w3.org/1999/xlink">
    <!-- Generator: Sketch 45 (43475) - http://www.bohemiancoding.com/sketch -->
    <title>Page 1</title>
    <desc>Created with Sketch.</desc>
    <defs></defs>
    <g id="Page-1" stroke="none" stroke-width="1" fill="none" fill-rule="evenodd">
        <g id="Landing_pageSemBusca" transform="translate(-301.000000, -475.000000)" fill="#000000">
            <g id="Busca" transform="translate(130.000000, 306.000000)">
                <g id="Group-6" transform="translate(24.000000, 99.000000)">
                    <g id="Moto" transform="translate(147.000000, 50.000000)">
                        <g id="Group-7">
                            <g id="ic_moto" transform="translate(0.000000, 20.000000)">
                                <path d="M14.806,9.694 L13.935,10.993 L11.283,10.994 C11.241,10.547 11.158,10.112 11.036,9.694 L14.806,9.694 Z M4.356,14.7 C2.668,14.7 1.3,13.331 1.3,11.644 C1.3,9.956 2.668,8.587 4.356,8.587 C5.821,8.587 7.046,9.618 7.344,10.994 L4.356,10.994 L4.356,12.294 L7.344,12.294 C7.046,13.669 5.822,14.7 4.356,14.7 L4.356,14.7 Z M21.723,11.955 L22.864,11.332 L21.433,8.71 C21.705,8.63 21.994,8.587 22.293,8.587 C23.981,8.587 25.35,9.956 25.35,11.644 C25.35,13.331 23.981,14.7 22.293,14.7 C20.605,14.7 19.236,13.331 19.236,11.644 C19.236,10.721 19.645,9.894 20.292,9.333 L21.723,11.955 Z M10.509,8.395 C10.002,7.439 9.28,6.614 8.406,5.988 L10.699,5.988 L12.814,4.213 C13.057,4.008 13.368,3.886 13.714,3.886 L17.318,3.886 L17.938,5.02 L15.677,8.395 L10.509,8.395 Z M16.679,0 L13.778,0 L13.778,1.3 L15.908,1.3 L16.609,2.586 L13.714,2.586 C13.053,2.586 12.449,2.821 11.978,3.218 L10.226,4.688 L4.357,4.688 L1.736,4.688 L1.736,5.987 L3.412,5.987 L4.357,5.987 C7.261,5.987 9.654,8.176 9.976,10.994 L8.665,10.994 C8.351,8.896 6.542,7.287 4.356,7.287 C1.95,7.287 0,9.238 0,11.644 C0,14.049 1.95,16 4.356,16 C6.542,16 8.351,14.391 8.665,12.294 L14.629,12.294 L18.64,6.307 L19.659,8.174 C18.612,8.969 17.936,10.228 17.937,11.644 C17.937,14.049 19.887,16 22.293,16 C24.699,16 26.65,14.05 26.65,11.644 C26.65,9.238 24.699,7.287 22.293,7.287 C21.769,7.287 21.266,7.38 20.8,7.55 L16.679,0 Z" id="Page-1"></path>
                            </g>
                        </g>
                    </g>
                </g>
            </g>
        </g>
    </g>
</svg>